# xmcd
#
# Track frame offsets:
#	150
#	13761
#	36038
#	56419
#	81360
#	104539
#	127515
#	156080
#	199984
#	228804
#	249282
#
# Disc length: 3813 seconds
#
# Revision: 0
# Processed by: cddbd v1.5.2PL0 Copyright (c) Steve Scherf et al.
# Submitted via: audiograbber 1.83.01
#
DISCID=7f0ee30b
DTITLE=Lightnin' Willie and the Poorboys - Live!
DYEAR=2006
DGENRE=Blues
TTITLE0=Sidewalkin'
TTITLE1=25 Dollars
TTITLE2=Tears Tears Tears
TTITLE3=Crazy
TTITLE4=Eyes In The Back Of My Head
TTITLE5=Take A Little Walk
TTITLE6=Don't Bite The Hand
TTITLE7=Woke Up This Morning
TTITLE8=Lookin' Out My Window
TTITLE9=Twenty Flight Rock
TTITLE10=Satisfied
EXTD=Recorded Live At The Running Horse, Nottingham, England
EXTT0=
EXTT1=
EXTT2=
EXTT3=
EXTT4=
EXTT5=
EXTT6=
EXTT7=
EXTT8=
EXTT9=
EXTT10=
PLAYORDER=
